<svg xmlns="http://www.w3.org/2000/svg" xmlns:xlink="http://www.w3.org/1999/xlink" preserveAspectRatio="xMidYMid" width="571" height="512" viewBox="0 0 571 512">
  <defs>
    <style>

      .cls-2 {
        fill: #000000;
      }
    </style>
  </defs>
  <path d="M251.089,307.583 C237.638,307.583 226.428,296.961 226.428,283.244 C226.428,283.244 226.428,119.499 226.428,119.499 C226.428,106.221 237.189,95.157 251.089,95.157 C251.089,95.157 273.955,95.157 273.955,95.157 C287.406,95.157 298.614,105.779 298.614,119.499 C298.614,119.499 298.614,283.686 298.614,283.686 C298.614,296.961 287.855,308.025 273.955,308.025 C273.955,308.025 251.089,308.025 251.089,308.025 C251.089,308.025 251.089,307.583 251.089,307.583 ZM262.297,409.371 C282.474,409.371 299.064,392.997 299.064,373.081 C299.064,353.168 282.474,336.793 262.297,336.793 C242.120,336.793 225.531,353.168 225.531,373.081 C225.531,392.997 242.120,409.371 262.297,409.371 ZM562.702,188.535 C552.837,180.129 537.144,181.013 529.074,191.192 C529.074,191.192 514.278,209.336 514.278,209.336 C491.861,90.734 386.047,0.010 259.159,0.010 C116.131,0.010 0.005,115.073 0.005,256.248 C0.005,397.423 116.131,512.044 259.159,512.044 C345.245,512.044 425.951,470.000 473.926,399.192 C482.892,385.917 479.307,368.212 466.303,359.363 C452.853,350.511 434.918,354.052 425.951,366.885 C388.289,421.762 325.965,454.511 259.159,454.511 C148.413,454.511 58.292,365.558 58.292,256.248 C58.292,146.937 148.413,57.985 259.159,57.985 C357.350,57.985 438.953,127.906 456.438,219.515 C456.438,219.515 434.021,201.814 434.021,201.814 C423.709,193.846 408.464,196.061 400.843,206.682 C393.667,216.861 395.909,231.021 405.774,238.547 C405.774,238.547 476.168,293.423 476.168,293.423 C481.100,297.404 488.273,299.176 494.101,298.291 C499.931,297.404 506.208,294.750 510.243,289.881 C510.243,289.881 565.840,220.400 565.840,220.400 C573.463,211.108 572.118,196.503 562.702,188.535 Z" id="path-1" class="cls-2" fill-rule="evenodd"/>
</svg>
