<svg xmlns="http://www.w3.org/2000/svg" xmlns:xlink="http://www.w3.org/1999/xlink" preserveAspectRatio="xMidYMid" width="548" height="512" viewBox="0 0 548 512">
  <defs>
    <style>

      .cls-2 {
        fill: #000000;
      }
    </style>
  </defs>
  <path d="M543.497,174.030 C543.497,174.030 524.726,202.539 524.726,202.539 C524.726,202.539 443.884,146.156 443.884,146.156 C443.884,146.156 462.655,117.635 462.655,117.635 C469.117,107.856 482.144,105.281 491.671,111.894 C491.671,111.894 537.919,144.137 537.919,144.137 C547.445,150.816 549.933,164.251 543.497,174.030 ZM384.365,415.834 C384.045,416.270 383.673,416.666 383.327,417.102 C380.173,412.508 370.839,401.185 347.196,385.743 C322.988,369.957 307.281,364.929 301.486,363.399 C301.986,362.051 302.679,360.705 303.525,359.425 C303.525,359.425 429.768,167.616 429.768,167.616 C429.768,167.616 510.622,223.986 510.622,223.986 C510.622,223.986 384.365,415.834 384.365,415.834 ZM366.083,117.635 C366.083,117.635 35.999,117.635 35.999,117.635 C16.216,117.635 -0.003,100.966 -0.003,80.614 C-0.003,80.614 -0.003,37.073 -0.003,37.073 C-0.003,16.722 16.216,0.014 35.999,0.014 C35.999,0.014 366.083,0.014 366.083,0.014 C385.853,0.014 402.034,16.722 402.034,37.073 C402.034,37.073 402.034,80.614 402.034,80.614 C402.034,100.966 385.853,117.635 366.083,117.635 ZM121.662,45.771 C121.662,45.771 48.706,45.771 48.706,45.771 C41.654,45.771 35.999,51.631 35.999,58.851 C35.999,66.043 41.654,71.917 48.706,71.917 C48.706,71.917 121.662,71.917 121.662,71.917 C128.688,71.917 134.356,66.043 134.356,58.851 C134.356,51.631 128.688,45.771 121.662,45.771 ZM35.999,153.574 C35.999,153.574 366.083,153.574 366.083,153.574 C377.776,153.574 388.110,159.487 394.675,168.449 C394.675,168.449 327.066,271.157 327.066,271.157 C327.066,271.157 35.999,271.157 35.999,271.157 C16.216,271.157 -0.003,254.527 -0.003,234.149 C-0.003,234.149 -0.003,190.608 -0.003,190.608 C-0.003,170.243 16.216,153.574 35.999,153.574 ZM48.706,225.464 C48.706,225.464 121.662,225.464 121.662,225.464 C128.688,225.464 134.356,219.618 134.356,212.372 C134.356,205.165 128.688,199.332 121.662,199.332 C121.662,199.332 48.706,199.332 48.706,199.332 C41.654,199.332 35.999,205.165 35.999,212.372 C35.999,219.618 41.654,225.464 48.706,225.464 ZM35.999,307.160 C35.999,307.160 303.397,307.160 303.397,307.160 C303.397,307.160 278.304,342.044 278.304,342.044 C276.305,345.093 274.395,348.893 273.099,352.299 C273.099,352.299 272.176,354.661 272.176,354.661 C272.176,354.661 254.507,401.634 250.853,424.729 C250.853,424.729 35.999,424.729 35.999,424.729 C16.216,424.729 -0.003,408.074 -0.003,387.696 C-0.003,387.696 -0.003,344.168 -0.003,344.168 C-0.003,323.791 16.216,307.160 35.999,307.160 ZM48.706,379.011 C48.706,379.011 121.662,379.011 121.662,379.011 C128.688,379.011 134.356,373.151 134.356,365.919 C134.356,358.700 128.688,352.853 121.662,352.853 C121.662,352.853 48.706,352.853 48.706,352.853 C41.654,352.853 35.999,358.700 35.999,365.919 C35.999,373.151 41.654,379.011 48.706,379.011 ZM297.269,497.518 C283.908,506.374 271.702,512.986 267.432,510.967 C262.842,508.776 263.329,492.766 265.457,474.672 C272.778,477.312 285.652,483.554 297.269,497.518 ZM286.921,386.785 C286.921,386.785 302.909,389.227 331.925,408.113 C361.004,427.053 366.928,439.473 366.928,439.473 C366.928,439.473 338.516,462.728 313.514,479.318 C299.820,462.859 284.575,455.415 275.894,452.315 C279.445,421.985 286.921,386.785 286.921,386.785 Z" id="path-1" class="cls-2" fill-rule="evenodd"/>
</svg>
