<svg xmlns="http://www.w3.org/2000/svg" xmlns:xlink="http://www.w3.org/1999/xlink" preserveAspectRatio="xMidYMid" width="473" height="512" viewBox="0 0 473 512">
  <defs>
    <style>

      .cls-2 {
        fill: #000000;
      }
    </style>
  </defs>
  <path d="M57.270,220.532 C57.270,220.532 134.868,220.532 134.868,220.532 C134.868,220.532 134.868,0.012 134.868,0.012 C134.868,0.012 338.059,0.012 338.059,0.012 C338.059,0.012 338.059,220.532 338.059,220.532 C338.059,220.532 415.643,220.532 415.643,220.532 C415.643,220.532 236.468,399.782 236.468,399.782 C236.468,399.782 57.270,220.532 57.270,220.532 ZM56.054,455.846 C56.054,455.846 416.875,455.846 416.875,455.846 C416.875,455.846 416.875,399.782 416.875,399.782 C416.875,399.782 472.913,399.782 472.913,399.782 C472.913,399.782 472.913,455.846 472.913,455.846 C472.913,455.846 472.913,511.899 472.913,511.899 C472.913,511.899 0.007,511.899 0.007,511.899 C0.007,511.899 0.007,455.846 0.007,455.846 C0.007,455.846 0.007,399.782 0.007,399.782 C0.007,399.782 56.054,399.782 56.054,399.782 C56.054,399.782 56.054,455.846 56.054,455.846 Z" id="path-1" class="cls-2" fill-rule="evenodd"/>
</svg>
