<svg xmlns="http://www.w3.org/2000/svg" xmlns:xlink="http://www.w3.org/1999/xlink" preserveAspectRatio="xMidYMid" width="521" height="512" viewBox="0 0 521 512">
  <defs>
    <style>

      .cls-2 {
        fill: #000000;
      }
    </style>
  </defs>
  <path d="M473.944,130.702 C473.944,130.702 390.156,46.829 390.156,46.829 C390.156,46.829 437.253,-0.176 437.253,-0.176 C437.253,-0.176 521.005,83.647 521.005,83.647 C521.005,83.647 473.944,130.702 473.944,130.702 ZM144.479,459.881 C144.479,459.881 60.731,376.027 60.731,376.027 C60.731,376.027 366.625,70.341 366.625,70.341 C366.625,70.341 450.417,154.214 450.417,154.214 C450.417,154.214 144.479,459.881 144.479,459.881 ZM94.759,457.178 C94.759,457.178 119.664,482.103 119.664,482.103 C119.664,482.103 -0.017,512.206 -0.017,512.206 C-0.017,512.206 38.868,401.219 38.868,401.219 C38.868,401.219 58.945,421.333 58.945,421.333 C58.945,421.333 41.711,470.502 41.711,470.502 C41.711,470.502 94.759,457.178 94.759,457.178 Z" id="path-1" class="cls-2" fill-rule="evenodd"/>
</svg>
