<svg xmlns="http://www.w3.org/2000/svg" xmlns:xlink="http://www.w3.org/1999/xlink" preserveAspectRatio="xMidYMid" width="539" height="512" viewBox="0 0 539 512">
  <defs>
    <style>

      .cls-2 {
        fill: #000000;
      }
    </style>
  </defs>
  <path d="M515.007,174.061 C515.007,174.061 366.570,160.024 366.570,160.024 C357.211,159.173 349.133,153.222 345.302,144.291 C345.302,144.291 292.140,15.418 292.140,15.418 C283.632,-5.851 253.435,-5.851 244.929,15.418 C244.929,15.418 192.188,144.291 192.188,144.291 C188.787,153.222 180.282,159.173 170.923,160.024 C170.923,160.024 22.486,174.061 22.486,174.061 C0.371,176.186 -8.561,203.831 8.026,218.719 C8.026,218.719 119.885,316.967 119.885,316.967 C127.116,323.348 130.094,332.704 127.966,342.061 C127.966,342.061 94.366,479.866 94.366,479.866 C89.261,501.559 112.656,519.422 132.221,507.936 C132.221,507.936 255.985,435.208 255.985,435.208 C264.067,430.532 273.849,430.532 281.931,435.208 C281.931,435.208 405.699,507.936 405.699,507.936 C425.263,519.422 448.655,501.984 443.551,479.866 C443.551,479.866 410.377,342.061 410.377,342.061 C408.250,332.704 411.227,323.348 418.458,316.967 C418.458,316.967 530.317,218.719 530.317,218.719 C546.477,203.831 537.122,176.186 515.007,174.061 Z" id="path-1" class="cls-2" fill-rule="evenodd"/>
</svg>
