<svg xmlns="http://www.w3.org/2000/svg" xmlns:xlink="http://www.w3.org/1999/xlink" preserveAspectRatio="xMidYMid" width="519" height="512" viewBox="0 0 519 512">
  <defs>
    <style>

      .cls-2 {
        fill: #000000;
      }
    </style>
  </defs>
  <path d="M519.519,465.780 C519.519,465.780 456.199,402.475 456.199,402.475 C456.199,402.475 405.764,352.070 405.764,352.070 C431.708,315.590 447.118,271.126 447.118,223.053 C447.118,99.839 346.827,-0.408 223.556,-0.408 C100.284,-0.408 0.008,99.839 0.008,223.053 C0.008,346.255 100.284,446.502 223.556,446.502 C275.050,446.502 322.388,428.837 360.218,399.486 C360.218,399.486 446.901,486.133 446.901,486.133 C447.972,487.202 449.157,488.040 450.323,488.922 C450.323,488.922 473.337,511.933 473.337,511.933 C473.337,511.933 519.519,465.780 519.519,465.780 ZM223.570,393.934 C129.301,393.927 52.616,317.273 52.616,223.059 C52.616,128.840 129.308,52.185 223.570,52.185 C317.829,52.185 394.521,128.840 394.521,223.059 C394.521,262.259 381.120,298.320 358.808,327.183 C351.443,336.713 343.160,345.517 333.964,353.302 C304.155,378.583 265.637,393.934 223.570,393.934 Z" id="path-1" class="cls-2" fill-rule="evenodd"/>
</svg>
